<svg width="70" height="16" viewBox="0 0 70 16" fill="none" xmlns="http://www.w3.org/2000/svg">
    <path d="M10.5462 0.509999C10.8122 0.509999 11.0432 0.600999 11.2392 0.782999C11.4352 0.950999 11.5472 1.161 11.5752 1.413L13.8642 15H10.6512L9.2442 4.332C9.2162 4.08 9.1952 3.835 9.1812 3.597C9.1672 3.359 9.1602 3.128 9.1602 2.904H8.5512C8.4812 3.1 8.4042 3.324 8.3202 3.576C8.2502 3.828 8.1662 4.073 8.0682 4.311L3.5952 15H0.235195L6.3462 1.308C6.4442 1.042 6.5912 0.846 6.7872 0.72C6.9972 0.579999 7.2352 0.509999 7.5012 0.509999H10.5462ZM11.6592 8.742L11.3652 11.22H3.8892L4.1832 8.742H11.6592ZM20.1474 0.509999L18.5934 11.304C18.5514 11.668 18.5934 11.948 18.7194 12.144C18.8594 12.326 19.1324 12.417 19.5384 12.417H24.5574L24.4944 14.853C23.5564 14.951 22.5414 15.007 21.4494 15.021C20.3574 15.049 19.2794 15.063 18.2154 15.063C17.5714 15.063 17.0114 14.93 16.5354 14.664C16.0734 14.398 15.7304 14.027 15.5064 13.551C15.2964 13.075 15.2404 12.508 15.3384 11.85L16.9134 0.509999H20.1474ZM33.2086 0.299999C34.5106 0.299999 35.5396 0.453999 36.2956 0.761999C37.0516 1.056 37.5626 1.56 37.8286 2.274C38.1086 2.974 38.1576 3.94 37.9756 5.172C37.8076 6.404 37.5206 7.356 37.1146 8.028C36.7226 8.686 36.1626 9.141 35.4346 9.393C34.7066 9.645 33.7476 9.771 32.5576 9.771C31.9276 9.771 31.3116 9.743 30.7096 9.687C30.1076 9.631 29.5406 9.561 29.0086 9.477C28.4906 9.379 28.0496 9.281 27.6856 9.183C27.3216 9.085 27.0696 9.001 26.9296 8.931L27.0556 7.356C27.8956 7.356 28.7706 7.356 29.6806 7.356C30.5906 7.356 31.4726 7.356 32.3266 7.356C32.8866 7.356 33.3276 7.293 33.6496 7.167C33.9716 7.041 34.2236 6.803 34.4056 6.453C34.5876 6.103 34.7206 5.592 34.8046 4.92C34.8886 4.346 34.8886 3.898 34.8046 3.576C34.7346 3.254 34.5596 3.03 34.2796 2.904C34.0136 2.778 33.6286 2.715 33.1246 2.715C31.8226 2.715 30.7096 2.729 29.7856 2.757C28.8616 2.771 28.2386 2.792 27.9166 2.82L27.8326 0.509999C28.4066 0.439999 28.9456 0.390999 29.4496 0.362999C29.9536 0.334999 30.4996 0.320999 31.0876 0.320999C31.6756 0.306999 32.3826 0.299999 33.2086 0.299999ZM31.0246 0.509999L28.9876 15H25.7956L27.8326 0.509999H31.0246ZM43.6455 0.509999L41.6085 15H38.3745L40.4115 0.509999H43.6455ZM48.1395 6.075L47.8035 8.511H42.3435L42.6795 6.075H48.1395ZM51.8985 0.509999L49.8615 15H46.6695L48.7065 0.509999H51.8985ZM61.354 0.509999C61.62 0.509999 61.851 0.600999 62.047 0.782999C62.243 0.950999 62.355 1.161 62.383 1.413L64.672 15H61.459L60.052 4.332C60.024 4.08 60.003 3.835 59.989 3.597C59.975 3.359 59.968 3.128 59.968 2.904H59.359C59.289 3.1 59.212 3.324 59.128 3.576C59.058 3.828 58.974 4.073 58.876 4.311L54.403 15H51.043L57.154 1.308C57.252 1.042 57.399 0.846 57.595 0.72C57.805 0.579999 58.043 0.509999 58.309 0.509999H61.354ZM62.467 8.742L62.173 11.22H54.697L54.991 8.742H62.467Z" fill="url(#paint0_linear_178_739)"/>
    <defs>
        <linearGradient id="paint0_linear_178_739" x1="5" y1="-7.93173e-07" x2="109.5" y2="24" gradientUnits="userSpaceOnUse">
            <stop stop-color="#FFE159"/>
            <stop offset="1" stop-color="#FFA751"/>
        </linearGradient>
    </defs>
</svg>
